HIERARCHY
ROOT Hips
{
	OFFSET -335.845001 -574.368103 89.378365
	CHANNELS 6 Xposition Yposition Zposition Zrotation Yrotation Xrotation
	JOINT Spine
	{
		OFFSET 0.000000 2.080078 8.814247
		CHANNELS 6 Xposition Yposition Zposition Zrotation Yrotation Xrotation
		JOINT Spine1
		{
			OFFSET 0.000000 0.000000 8.844139
			CHANNELS 6 Xposition Yposition Zposition Zrotation Yrotation Xrotation
			JOINT Spine2
			{
				OFFSET 0.000000 0.000000 11.682266
				CHANNELS 6 Xposition Yposition Zposition Zrotation Yrotation Xrotation
				JOINT Spine3
				{
					OFFSET 0.000000 0.000000 11.746696
					CHANNELS 6 Xposition Yposition Zposition Zrotation Yrotation Xrotation
					JOINT Neck
					{
						OFFSET 0.000000 0.000000 17.658264
						CHANNELS 6 Xposition Yposition Zposition Zrotation Yrotation Xrotation
						JOINT Neck1
						{
							OFFSET 0.000000 0.000000 5.101517
							CHANNELS 6 Xposition Yposition Zposition Zrotation Yrotation Xrotation
							JOINT Head
							{
								OFFSET 0.000000 0.000000 5.101517
								CHANNELS 6 Xposition Yposition Zposition Zrotation Yrotation Xrotation
								JOINT HeadEnd
								{
									OFFSET 0.000000 0.000000 11.655090
									CHANNELS 6 Xposition Yposition Zposition Zrotation Yrotation Xrotation
									End Site
									{
										OFFSET 0.000000 0.000000 0.100006
									}
								}
							}
						}
					}
					JOINT RightShoulder
					{
						OFFSET -2.625397 0.000000 11.175217
						CHANNELS 6 Xposition Yposition Zposition Zrotation Yrotation Xrotation
						JOINT RightArm
						{
							OFFSET 0.000000 0.000000 10.434708
							CHANNELS 6 Xposition Yposition Zposition Zrotation Yrotation Xrotation
							JOINT RightForeArm
							{
								OFFSET 0.000000 0.000000 29.628418
								CHANNELS 6 Xposition Yposition Zposition Zrotation Yrotation Xrotation
								JOINT RightHand
								{
									OFFSET 0.000000 0.000000 22.857605
									CHANNELS 6 Xposition Yposition Zposition Zrotation Yrotation Xrotation
									JOINT RightHandThumb1
									{
										OFFSET -2.867310 -2.944275 3.959564
										CHANNELS 6 Xposition Yposition Zposition Zrotation Yrotation Xrotation
										JOINT RightHandThumb2
										{
											OFFSET 0.000000 0.000000 3.350403
											CHANNELS 6 Xposition Yposition Zposition Zrotation Yrotation Xrotation
											JOINT RightHandThumb3
											{
												OFFSET 0.000000 0.000000 3.756516
												CHANNELS 6 Xposition Yposition Zposition Zrotation Yrotation Xrotation
												JOINT RightHandThumb4
												{
													OFFSET 0.000000 0.000000 3.147339
													CHANNELS 6 Xposition Yposition Zposition Zrotation Yrotation Xrotation
													End Site
													{
														OFFSET 0.000000 0.000000 0.100006
													}
												}
											}
										}
									}
									JOINT RightHandIndex1
									{
										OFFSET -0.086761 -2.345276 10.030899
										CHANNELS 6 Xposition Yposition Zposition Zrotation Yrotation Xrotation
										JOINT RightHandIndex2
										{
											OFFSET 0.000000 0.000000 4.061096
											CHANNELS 6 Xposition Yposition Zposition Zrotation Yrotation Xrotation
											JOINT RightHandIndex3
											{
												OFFSET 0.000000 0.000000 3.248871
												CHANNELS 6 Xposition Yposition Zposition Zrotation Yrotation Xrotation
												JOINT RightHandIndex4
												{
													OFFSET 0.000000 0.000000 2.639709
													CHANNELS 6 Xposition Yposition Zposition Zrotation Yrotation Xrotation
													End Site
													{
														OFFSET 0.000000 0.000000 0.100006
													}
												}
											}
										}
									}
									JOINT RightHandMiddle1
									{
										OFFSET 0.104095 -0.006775 9.502945
										CHANNELS 6 Xposition Yposition Zposition Zrotation Yrotation Xrotation
										JOINT RightHandMiddle2
										{
											OFFSET 0.000000 0.000000 4.568726
											CHANNELS 6 Xposition Yposition Zposition Zrotation Yrotation Xrotation
											JOINT RightHandMiddle3
											{
												OFFSET 0.000000 0.000000 3.654984
												CHANNELS 6 Xposition Yposition Zposition Zrotation Yrotation Xrotation
												JOINT RightHandMiddle4
												{
													OFFSET 0.000000 0.000000 2.741241
													CHANNELS 6 Xposition Yposition Zposition Zrotation Yrotation Xrotation
													End Site
													{
														OFFSET 0.000000 0.000000 0.100006
													}
												}
											}
										}
									}
									JOINT RightHandRing1
									{
										OFFSET 0.086761 2.267456 8.921707
										CHANNELS 6 Xposition Yposition Zposition Zrotation Yrotation Xrotation
										JOINT RightHandRing2
										{
											OFFSET 0.000000 0.000000 4.061096
											CHANNELS 6 Xposition Yposition Zposition Zrotation Yrotation Xrotation
											JOINT RightHandRing3
											{
												OFFSET 0.000000 0.000000 3.654984
												CHANNELS 6 Xposition Yposition Zposition Zrotation Yrotation Xrotation
												JOINT RightHandRing4
												{
													OFFSET 0.000000 0.000000 2.741241
													CHANNELS 6 Xposition Yposition Zposition Zrotation Yrotation Xrotation
													End Site
													{
														OFFSET 0.000000 0.000000 0.100006
													}
												}
											}
										}
									}
									JOINT RightHandPinky1
									{
										OFFSET -0.173492 4.467224 7.976990
										CHANNELS 6 Xposition Yposition Zposition Zrotation Yrotation Xrotation
										JOINT RightHandPinky2
										{
											OFFSET 0.000000 0.000000 3.350403
											CHANNELS 6 Xposition Yposition Zposition Zrotation Yrotation Xrotation
											JOINT RightHandPinky3
											{
												OFFSET 0.000000 0.000000 2.842758
												CHANNELS 6 Xposition Yposition Zposition Zrotation Yrotation Xrotation
												JOINT RightHandPinky4
												{
													OFFSET 0.000000 0.000000 2.639709
													CHANNELS 6 Xposition Yposition Zposition Zrotation Yrotation Xrotation
													End Site
													{
														OFFSET 0.000000 0.000000 0.100006
													}
												}
											}
										}
									}
									JOINT RightForeArmEnd
									{
										OFFSET 0.000000 0.000000 0.000000
										CHANNELS 6 Xposition Yposition Zposition Zrotation Yrotation Xrotation
										End Site
										{
											OFFSET 0.000000 0.000000 0.100006
										}
									}
								}
								JOINT RightArmEnd
								{
									OFFSET 0.000000 0.000000 0.000000
									CHANNELS 6 Xposition Yposition Zposition Zrotation Yrotation Xrotation
									End Site
									{
										OFFSET 0.000000 0.000000 0.100006
									}
								}
							}
						}
					}
					JOINT LeftShoulder
					{
						OFFSET 2.625397 0.000000 11.175217
						CHANNELS 6 Xposition Yposition Zposition Zrotation Yrotation Xrotation
						JOINT LeftArm
						{
							OFFSET 0.000000 0.000000 10.813629
							CHANNELS 6 Xposition Yposition Zposition Zrotation Yrotation Xrotation
							JOINT LeftForeArm
							{
								OFFSET 0.000000 0.000000 28.724777
								CHANNELS 6 Xposition Yposition Zposition Zrotation Yrotation Xrotation
								JOINT LeftHand
								{
									OFFSET 0.644379 0.328857 25.716171
									CHANNELS 6 Xposition Yposition Zposition Zrotation Yrotation Xrotation
									JOINT LeftHandThumb1
									{
										OFFSET 2.867310 -2.944275 3.959564
										CHANNELS 6 Xposition Yposition Zposition Zrotation Yrotation Xrotation
										JOINT LeftHandThumb2
										{
											OFFSET 0.000000 0.000000 3.350403
											CHANNELS 6 Xposition Yposition Zposition Zrotation Yrotation Xrotation
											JOINT LeftHandThumb3
											{
												OFFSET 0.000000 0.000000 3.756516
												CHANNELS 6 Xposition Yposition Zposition Zrotation Yrotation Xrotation
												JOINT LeftHandThumb4
												{
													OFFSET 0.000000 0.000000 3.100006
													CHANNELS 6 Xposition Yposition Zposition Zrotation Yrotation Xrotation
													End Site
													{
														OFFSET 0.000000 0.000000 0.100006
													}
												}
											}
										}
									}
									JOINT LeftHandIndex1
									{
										OFFSET 0.086761 -2.345276 10.030899
										CHANNELS 6 Xposition Yposition Zposition Zrotation Yrotation Xrotation
										JOINT LeftHandIndex2
										{
											OFFSET 0.000000 0.000000 4.061096
											CHANNELS 6 Xposition Yposition Zposition Zrotation Yrotation Xrotation
											JOINT LeftHandIndex3
											{
												OFFSET 0.000000 0.000000 3.248871
												CHANNELS 6 Xposition Yposition Zposition Zrotation Yrotation Xrotation
												JOINT LeftHandIndex4
												{
													OFFSET 0.000000 0.000000 2.639709
													CHANNELS 6 Xposition Yposition Zposition Zrotation Yrotation Xrotation
													End Site
													{
														OFFSET 0.000000 0.000000 0.100006
													}
												}
											}
										}
									}
									JOINT LeftHandMiddle1
									{
										OFFSET -0.104095 -0.006775 9.502945
										CHANNELS 6 Xposition Yposition Zposition Zrotation Yrotation Xrotation
										JOINT LeftHandMiddle2
										{
											OFFSET 0.000000 0.000000 4.568726
											CHANNELS 6 Xposition Yposition Zposition Zrotation Yrotation Xrotation
											JOINT LeftHandMiddle3
											{
												OFFSET 0.000000 0.000000 3.654984
												CHANNELS 6 Xposition Yposition Zposition Zrotation Yrotation Xrotation
												JOINT LeftHandMiddle4
												{
													OFFSET 0.000000 0.000000 2.741241
													CHANNELS 6 Xposition Yposition Zposition Zrotation Yrotation Xrotation
													End Site
													{
														OFFSET 0.000000 0.000000 0.100006
													}
												}
											}
										}
									}
									JOINT LeftHandRing1
									{
										OFFSET -0.086761 2.267456 8.921707
										CHANNELS 6 Xposition Yposition Zposition Zrotation Yrotation Xrotation
										JOINT LeftHandRing2
										{
											OFFSET 0.000000 0.000000 4.061096
											CHANNELS 6 Xposition Yposition Zposition Zrotation Yrotation Xrotation
											JOINT LeftHandRing3
											{
												OFFSET 0.000000 0.000000 3.654984
												CHANNELS 6 Xposition Yposition Zposition Zrotation Yrotation Xrotation
												JOINT LeftHandRing4
												{
													OFFSET 0.000000 0.000000 2.741241
													CHANNELS 6 Xposition Yposition Zposition Zrotation Yrotation Xrotation
													End Site
													{
														OFFSET 0.000000 0.000000 0.100006
													}
												}
											}
										}
									}
									JOINT LeftHandPinky1
									{
										OFFSET 0.173492 4.467224 7.976990
										CHANNELS 6 Xposition Yposition Zposition Zrotation Yrotation Xrotation
										JOINT LeftHandPinky2
										{
											OFFSET 0.000000 0.000000 3.350403
											CHANNELS 6 Xposition Yposition Zposition Zrotation Yrotation Xrotation
											JOINT LeftHandPinky3
											{
												OFFSET 0.000000 0.000000 2.842758
												CHANNELS 6 Xposition Yposition Zposition Zrotation Yrotation Xrotation
												JOINT LeftHandPinky4
												{
													OFFSET 0.000000 0.000000 2.639709
													CHANNELS 6 Xposition Yposition Zposition Zrotation Yrotation Xrotation
													End Site
													{
														OFFSET 0.000000 0.000000 0.100006
													}
												}
											}
										}
									}
									JOINT LeftForeArmEnd
									{
										OFFSET 0.000000 0.000000 0.000000
										CHANNELS 6 Xposition Yposition Zposition Zrotation Yrotation Xrotation
										End Site
										{
											OFFSET 0.000000 0.000000 0.100006
										}
									}
								}
								JOINT LeftArmEnd
								{
									OFFSET 0.000000 0.000000 0.000000
									CHANNELS 6 Xposition Yposition Zposition Zrotation Yrotation Xrotation
									End Site
									{
										OFFSET 0.000000 0.000000 0.100006
									}
								}
							}
						}
					}
				}
			}
		}
	}
	JOINT RightUpLeg
	{
		OFFSET -11.289948 0.000000 0.000000
		CHANNELS 6 Xposition Yposition Zposition Zrotation Yrotation Xrotation
		JOINT RightLeg
		{
			OFFSET 0.000000 0.000000 -38.200329
			CHANNELS 6 Xposition Yposition Zposition Zrotation Yrotation Xrotation
			JOINT RightFoot
			{
				OFFSET 0.000000 0.000000 -39.900856
				CHANNELS 6 Xposition Yposition Zposition Zrotation Yrotation Xrotation
				JOINT RightToeBase
				{
					OFFSET 0.000000 -15.261658 0.000002
					CHANNELS 6 Xposition Yposition Zposition Zrotation Yrotation Xrotation
					JOINT RightToeBaseEnd
					{
						OFFSET 0.000000 -7.370728 0.000000
						CHANNELS 6 Xposition Yposition Zposition Zrotation Yrotation Xrotation
						End Site
						{
							OFFSET 0.000000 0.000000 0.100000
						}
					}
				}
				JOINT RightLegEnd
				{
					OFFSET 0.000000 0.000000 0.000000
					CHANNELS 6 Xposition Yposition Zposition Zrotation Yrotation Xrotation
					End Site
					{
						OFFSET 0.000000 0.000000 0.100000
					}
				}
			}
			JOINT RightUpLegEnd
			{
				OFFSET 0.000000 0.000000 0.000000
				CHANNELS 6 Xposition Yposition Zposition Zrotation Yrotation Xrotation
				End Site
				{
					OFFSET 0.000000 0.000000 0.099998
				}
			}
		}
	}
	JOINT LeftUpLeg
	{
		OFFSET 11.315674 0.000000 0.000000
		CHANNELS 6 Xposition Yposition Zposition Zrotation Yrotation Xrotation
		JOINT LeftLeg
		{
			OFFSET 0.000000 0.000000 -38.200329
			CHANNELS 6 Xposition Yposition Zposition Zrotation Yrotation Xrotation
			JOINT LeftFoot
			{
				OFFSET 0.000000 0.000000 -39.900856
				CHANNELS 6 Xposition Yposition Zposition Zrotation Yrotation Xrotation
				JOINT LeftToeBase
				{
					OFFSET 0.000000 -15.261658 0.000002
					CHANNELS 6 Xposition Yposition Zposition Zrotation Yrotation Xrotation
					JOINT LeftToeBaseEnd
					{
						OFFSET 0.000000 -7.539978 0.000000
						CHANNELS 6 Xposition Yposition Zposition Zrotation Yrotation Xrotation
						End Site
						{
							OFFSET 0.000000 0.000000 0.100000
						}
					}
				}
				JOINT LeftLegEnd
				{
					OFFSET 0.000000 0.000000 0.000000
					CHANNELS 6 Xposition Yposition Zposition Zrotation Yrotation Xrotation
					End Site
					{
						OFFSET 0.000000 0.000000 0.100000
					}
				}
			}
			JOINT LeftUpLegEnd
			{
				OFFSET 0.000000 0.000000 0.000000
				CHANNELS 6 Xposition Yposition Zposition Zrotation Yrotation Xrotation
				End Site
				{
					OFFSET 0.000000 0.000000 0.099998
				}
			}
		}
	}
}
MOTION
Frames: 2
Frame Time: 0.016667
-17.998291 -23.980408 89.087112 7.218678 2.050966 -1.901274 0.000003 2.080095 8.814249 0.084944 -0.872214 1.947043 -0.000013 -0.000002 8.844154 0.026106 0.622368 0.626023 -0.000002 -0.000025 11.682272 -2.131759 0.981139 1.212542 -0.000013 -0.000002 11.746691 -1.008085 1.651911 0.087439 -0.000000 0.000025 17.658264 -2.897073 -14.187002 9.487190 -0.000007 -0.000005 5.101509 1.712708 -0.699283 -0.640761 0.000011 0.000014 5.101554 -0.814813 1.066100 -13.007740 0.000001 0.000001 11.655054 -0.000000 -0.000001 -0.000000 -2.625397 -0.000015 11.175216 18.025030 -73.076699 0.453829 0.000015 0.000015 10.434700 -14.280528 -8.722411 34.581866 0.000000 0.000034 29.628448 10.406080 -0.314671 114.207948 0.000023 -0.000015 22.857597 25.024340 -29.760521 10.349366 -2.867301 -2.944260 3.959518 32.995356 -27.956823 36.610934 0.000008 0.000000 3.350414 -36.139006 9.737549 -60.735292 -0.000015 -0.000015 3.756462 -24.193203 11.009520 -41.576014 0.000021 -0.000053 3.147341 -0.000001 -0.000003 -0.000001 -0.086748 -2.345273 10.030853 -124.470936 -67.673173 123.468606 -0.000038 -0.000072 4.061066 -15.616247 -70.085404 22.825867 -0.000053 -0.000051 3.248848 -16.117011 -70.085104 22.826390 -0.000026 -0.000001 2.639722 -0.000000 -0.000001 -0.000003 0.104092 -0.006824 9.502937 -130.948482 -72.285784 134.179831 -0.000032 0.000029 4.568638 -5.752225 -71.003443 8.757508 -0.000027 -0.000008 3.654984 -6.252195 -71.003436 8.756335 -0.000037 0.000008 2.741226 0.000001 0.000000 -0.000001 0.086769 2.267439 8.921691 13.185880 -112.014945 -3.997266 -0.000023 -0.000062 4.061062 11.139929 -76.911878 -15.267285 -0.000013 -0.000043 3.654961 12.139871 -76.911912 -15.251988 -0.000036 0.000003 2.741248 -0.000002 -0.000001 -0.000001 -0.173485 4.467125 7.976944 -7.215420 -117.811939 22.211304 -0.000031 -0.000050 3.350407 34.162178 -74.917326 -46.157438 -0.000008 -0.000015 2.842773 36.162174 -74.917312 -46.157377 -0.000004 -0.000066 2.639711 0.000001 0.000002 0.000003 -0.000006 -0.000009 0.000021 -0.000001 -0.000000 -0.000001 0.000001 -0.000003 -0.000013 0.000001 -0.000001 0.000001 2.625381 -0.000006 11.175250 -18.012667 74.162611 -0.669528 -0.000008 0.000025 10.813614 3.005142 18.810503 21.662095 0.000027 -0.000053 28.724854 -13.580606 0.467613 103.812496 0.644370 0.328780 25.716160 4.403667 4.087850 4.715969 2.867222 -2.944366 3.959549 -33.529634 29.323679 34.785064 -0.000015 -0.000031 3.350491 38.923920 -8.843031 -65.314428 -0.000053 -0.000046 3.756516 26.237344 -11.072384 -44.834810 -0.000032 0.000001 3.100014 -0.000001 0.000002 0.000001 0.086777 -2.345203 10.030983 -6.698930 103.256402 -24.114329 -0.000004 -0.000008 4.061123 -18.343187 72.048524 -25.708294 -0.000019 -0.000004 3.248917 -18.843227 72.048517 -25.708310 0.000006 -0.000005 2.639729 0.000000 -0.000001 0.000002 -0.104065 -0.006763 9.502968 -26.252746 104.322014 -35.512138 0.000027 -0.000041 4.568735 -6.290377 72.074594 -9.319843 0.000025 -0.000058 3.655006 -6.790291 72.074540 -9.323609 -0.000037 -0.000017 2.741253 0.000002 0.000001 -0.000000 -0.086739 2.267514 8.921738 -33.577278 115.564315 -32.116291 0.000008 0.000043 4.061157 11.809272 77.444079 15.936494 -0.000010 -0.000001 3.655022 12.809294 77.444114 15.939110 -0.000004 0.000008 2.741256 -0.000001 0.000000 0.000000 0.173485 4.467182 7.976974 -45.706362 121.446747 -32.340608 0.000023 -0.000023 3.350437 36.239932 75.409462 48.309020 0.000023 -0.000031 2.842773 38.239982 75.409469 48.309074 -0.000019 0.000015 2.639710 -0.000002 0.000000 0.000000 -0.000000 -0.000010 0.000012 0.000000 -0.000001 -0.000000 -0.000003 -0.000003 0.000004 0.000000 -0.000001 -0.000002 -11.289952 -0.000033 0.000012 -4.314474 1.633137 -0.676107 -0.000007 0.000062 -38.200329 -1.377357 0.172251 7.127097 -0.000010 -0.000014 -39.900864 -4.894432 -1.528345 25.343157 0.000015 -15.261732 0.000032 1.799175 0.680981 -22.070522 0.000001 -7.370727 0.000001 -0.000000 -0.000000 0.000000 0.000001 -0.000003 0.000000 0.000001 -0.000000 -0.000002 0.000001 0.000060 -0.000004 0.000000 -0.000000 -0.000000 11.315699 0.000007 0.000002 -5.776390 -5.112507 -1.893341 0.000016 0.000062 -38.200314 0.700988 -0.205799 16.624800 0.000050 0.000029 -39.900837 6.825408 0.382492 16.389590 0.000006 -15.261748 0.000029 -0.580386 -1.051461 -21.762436 -0.000037 -7.539978 -0.000001 0.000000 -0.000000 0.000000 -0.000002 0.000061 -0.000001 -0.000000 0.000000 -0.000000 0.000030 0.000004 0.000004 -0.000000 0.000001 -0.000002 
-18.009705 -24.184448 89.139084 7.675392 1.890392 -2.111895 -0.000013 2.080075 8.814277 0.065318 -0.770074 2.220683 0.000002 0.000011 8.844159 0.065547 0.815327 0.274837 -0.000009 -0.000021 11.682278 -2.132118 1.092057 1.272276 0.000005 -0.000003 11.746689 -1.030832 1.506940 0.083310 -0.000008 -0.000008 17.658241 -3.492533 -14.185631 9.553973 0.000013 -0.000013 5.101512 1.295918 -0.651685 -1.219926 -0.000006 -0.000006 5.101524 -0.812849 1.010927 -12.898595 0.000001 -0.000000 11.655067 0.000000 -0.000001 -0.000000 -2.625374 0.000021 11.175196 17.872051 -74.282952 0.391327 -0.000023 -0.000008 10.434692 -15.565122 -6.433454 32.756901 -0.000017 -0.000027 29.628407 9.980671 -0.432806 113.706626 0.000046 0.000008 22.857613 22.998101 -29.371999 10.236745 -2.867295 -2.944290 3.959549 33.066537 -28.151893 36.350540 0.000000 0.000000 3.350422 -36.541574 9.623285 -61.392766 -0.000069 0.000015 3.756439 -24.484941 11.025483 -42.041341 0.000005 -0.000120 3.147337 -0.000001 -0.000001 0.000001 -0.086764 -2.345285 10.030983 -126.443672 -67.137338 125.323139 -0.000008 0.000086 4.061081 -16.367759 -70.673490 23.623681 -0.000023 -0.000032 3.248886 -16.867752 -70.673497 23.623681 -0.000045 -0.000012 2.639737 0.000000 -0.000001 -0.000000 0.104065 -0.006886 9.502918 -132.750177 -71.798914 135.734765 -0.000010 -0.000016 4.568661 -5.996627 -71.505933 9.011426 0.000008 -0.000011 3.654919 -6.496678 -71.505940 9.009008 -0.000030 0.000008 2.741246 -0.000000 0.000000 -0.000002 0.086784 2.267406 8.921678 12.945631 -112.314552 -4.149518 -0.000027 -0.000073 4.061081 11.421569 -77.141482 -15.551842 -0.000050 -0.000149 3.655006 12.421557 -77.141482 -15.536824 -0.000027 0.000003 2.741241 0.000000 -0.000003 0.000003 -0.173454 4.467043 7.976982 -7.253042 -117.912137 21.956635 0.000008 -0.000053 3.350403 34.465189 -74.992472 -46.466829 -0.000015 -0.000038 2.842762 36.465168 -74.992424 -46.467901 -0.000032 -0.000053 2.639693 -0.000001 -0.000001 0.000003 0.000011 0.000004 0.000017 0.000000 0.000002 0.000002 0.000031 -0.000001 -0.000012 0.000000 -0.000000 0.000001 2.625381 0.000006 11.175228 -18.060883 74.859666 -0.656553 -0.000015 -0.000004 10.813629 4.662780 16.373451 21.658518 0.000013 -0.000031 28.724802 -13.219492 0.531322 104.852249 0.644375 0.328765 25.716183 5.267174 4.712924 4.359237 2.867229 -2.944351 3.959518 -33.529634 29.323679 34.785067 0.000000 -0.000015 3.350452 38.923903 -8.843037 -65.314408 -0.000061 -0.000031 3.756531 26.237345 -11.072386 -44.834823 -0.000030 -0.000002 3.100010 0.000000 -0.000001 -0.000001 0.086792 -2.345206 10.030941 -6.857967 102.970436 -24.046630 0.000000 0.000008 4.061176 -18.037380 71.850264 -25.390064 -0.000011 0.000000 3.248867 -18.537379 71.850271 -25.391783 -0.000016 0.000062 2.639717 -0.000000 -0.000002 -0.000000 -0.104065 -0.006718 9.502968 -26.788080 104.061060 -35.851147 0.000050 -0.000039 4.568771 -6.198455 71.865263 -9.224230 0.000010 -0.000061 3.655008 -6.692249 71.865461 -9.221040 -0.000027 -0.000001 2.741243 -0.000000 0.000003 -0.000001 -0.086731 2.267509 8.921738 -33.954892 115.329329 -32.241502 -0.000004 0.000026 4.061092 11.576323 77.264097 15.698780 -0.000002 0.000085 3.655010 12.593557 77.263291 15.717978 -0.000036 0.000010 2.741249 -0.000001 -0.000000 0.000001 0.173538 4.467258 7.976967 -46.227659 121.144169 -32.331086 0.000000 -0.000038 3.350426 35.643742 75.273609 47.692773 0.000015 0.000004 2.842789 37.643754 75.273623 47.695109 -0.000038 0.000006 2.639704 -0.000000 0.000000 0.000001 -0.000029 0.000059 0.000012 -0.000000 0.000000 0.000002 0.000030 0.000006 -0.000004 0.000000 -0.000000 -0.000001 -11.289932 -0.000004 0.000014 -5.192608 1.850764 0.170024 -0.000013 0.000061 -38.200317 -1.355305 0.149522 6.294515 0.000002 -0.000024 -39.900875 -4.444417 -1.497511 25.519832 0.000022 -15.261715 0.000023 1.846529 0.614387 -22.192844 -0.000000 -7.370667 -0.000002 0.000000 -0.000000 0.000000 0.000032 -0.000002 -0.000001 0.000000 -0.000000 -0.000001 -0.000000 0.000060 -0.000001 0.000000 0.000000 -0.000000 11.315710 -0.000028 0.000026 -5.557576 -5.017576 -0.634398 0.000008 0.000018 -38.200352 0.780979 -0.203368 14.680602 0.000032 -0.000011 -39.900852 6.076701 0.440535 16.876197 -0.000001 -15.261688 0.000015 -0.654773 -1.058517 -21.571279 -0.000037 -7.539985 -0.000000 0.000001 -0.000000 0.000000 -0.000002 0.000001 0.000002 -0.000000 0.000000 0.000002 0.000028 -0.000000 0.000003 0.000000 0.000000 0.000002 
